<?xml version="1.0" encoding="UTF-8" standalone="no"?>
<!DOCTYPE svg PUBLIC "-//W3C//DTD SVG 1.1//EN"
 "http://www.w3.org/Graphics/SVG/1.1/DTD/svg11.dtd">
<!-- Generated by graphviz version 5.0.0 (20220707.1540)
 -->
<!-- Title: UmlClassDiagram Pages: 1 -->
<svg width="2067pt" height="1302pt"
 viewBox="0.00 0.00 2066.90 1301.80" xmlns="http://www.w3.org/2000/svg" xmlns:xlink="http://www.w3.org/1999/xlink">
<g id="graph0" class="graph" transform="scale(1 1) rotate(0) translate(4 1297.8)">
<title>UmlClassDiagram</title>
<polygon fill="white" stroke="transparent" points="-4,4 -4,-1297.8 2062.9,-1297.8 2062.9,4 -4,4"/>
<!-- 2 -->
<g id="node1" class="node">
<title>2</title>
<polygon fill="#f2f2f2" stroke="black" points="423.84,-0.5 423.84,-394.1 2058.9,-394.1 2058.9,-0.5 423.84,-0.5"/>
<text text-anchor="middle" x="1241.37" y="-377.5" font-family="Times,serif" font-size="14.00">NonfungiblePositionManager</text>
<text text-anchor="middle" x="1241.37" y="-360.7" font-family="Times,serif" font-size="14.00">contracts/NonfungiblePositionManager.sol</text>
<polyline fill="none" stroke="black" points="423.84,-352.5 2058.9,-352.5 "/>
<text text-anchor="middle" x="1241.37" y="-335.9" font-family="Times,serif" font-size="14.00"> </text>
<polyline fill="none" stroke="black" points="423.84,-327.7 2058.9,-327.7 "/>
<text text-anchor="start" x="431.84" y="-311.1" font-family="Times,serif" font-size="14.00">External:</text>
<text text-anchor="start" x="431.84" y="-294.3" font-family="Times,serif" font-size="14.00"> &#160;&#160;&#160;&lt;&lt;payable&gt;&gt; mint(params: MintParams): (tokenId: uint256, liquidity: uint128, amount0: uint256, amount1: uint256) &lt;&lt;checkDeadline, unlockFunction&gt;&gt;</text>
<text text-anchor="start" x="431.84" y="-277.5" font-family="Times,serif" font-size="14.00"> &#160;&#160;&#160;&lt;&lt;payable&gt;&gt; increaseLiquidity(params: IncreaseLiquidityParams): (liquidity: uint128, amount0: uint256, amount1: uint256) &lt;&lt;checkDeadline, unlockFunction&gt;&gt;</text>
<text text-anchor="start" x="431.84" y="-260.7" font-family="Times,serif" font-size="14.00"> &#160;&#160;&#160;&lt;&lt;payable&gt;&gt; decreaseLiquidity(params: DecreaseLiquidityParams): (amount0: uint256, amount1: uint256) &lt;&lt;isAuthorizedForToken, checkDeadline, unlockFunction&gt;&gt;</text>
<text text-anchor="start" x="431.84" y="-243.9" font-family="Times,serif" font-size="14.00"> &#160;&#160;&#160;&lt;&lt;payable&gt;&gt; collect(params: CollectParams): (amount0: uint256, amount1: uint256) &lt;&lt;isAuthorizedForToken, unlockFunction&gt;&gt;</text>
<text text-anchor="start" x="431.84" y="-227.1" font-family="Times,serif" font-size="14.00"> &#160;&#160;&#160;&lt;&lt;payable&gt;&gt; burn(tokenId: uint256) &lt;&lt;isAuthorizedForToken, unlockFunction&gt;&gt;</text>
<text text-anchor="start" x="431.84" y="-210.3" font-family="Times,serif" font-size="14.00"> &#160;&#160;&#160;positions(tokenId: uint256): (nonce: uint96, operator: address, token0: address, token1: address, fee: uint24, tickLower: int24, tickUpper: int24, liquidity: uint128, feeGrowthInside0LastX128: uint256, feeGrowthInside1LastX128: uint256, tokensOwed0: uint128, tokensOwed1: uint128)</text>
<text text-anchor="start" x="431.84" y="-193.5" font-family="Times,serif" font-size="14.00"> &#160;&#160;&#160;collectAmounts(params: CollectParams)</text>
<text text-anchor="start" x="431.84" y="-176.7" font-family="Times,serif" font-size="14.00">Public:</text>
<text text-anchor="start" x="431.84" y="-159.9" font-family="Times,serif" font-size="14.00"> &#160;&#160;&#160;&lt;&lt;modifier&gt;&gt; unlockFunction()</text>
<text text-anchor="start" x="431.84" y="-143.1" font-family="Times,serif" font-size="14.00"> &#160;&#160;&#160;&lt;&lt;modifier&gt;&gt; isAuthorizedForToken(tokenId: uint256)</text>
<text text-anchor="start" x="431.84" y="-126.3" font-family="Times,serif" font-size="14.00"> &#160;&#160;&#160;constructor(_factory: address, _WETH9: address, _tokenDescriptor_: address, _eatVerifier: address, _violetID: address)</text>
<text text-anchor="start" x="431.84" y="-109.5" font-family="Times,serif" font-size="14.00"> &#160;&#160;&#160;tokenURI(tokenId: uint256): string</text>
<text text-anchor="start" x="431.84" y="-92.7" font-family="Times,serif" font-size="14.00"> &#160;&#160;&#160;baseURI(): string</text>
<text text-anchor="start" x="431.84" y="-75.9" font-family="Times,serif" font-size="14.00"> &#160;&#160;&#160;getApproved(tokenId: uint256): address</text>
<text text-anchor="start" x="431.84" y="-59.1" font-family="Times,serif" font-size="14.00"> &#160;&#160;&#160;transferFrom(from: address, to: address, tokenId: uint256) &lt;&lt;onlyAllowedToInteract, onlyWhenNotEmergencyMode&gt;&gt;</text>
<text text-anchor="start" x="431.84" y="-42.3" font-family="Times,serif" font-size="14.00"> &#160;&#160;&#160;transferFrom(v: uint8, r: bytes32, s: bytes32, expiry: uint256, from: address, to: address, tokenId: uint256) &lt;&lt;requiresAuth, onlyWhenNotEmergencyMode&gt;&gt;</text>
<text text-anchor="start" x="431.84" y="-25.5" font-family="Times,serif" font-size="14.00"> &#160;&#160;&#160;safeTransferFrom(from: address, to: address, tokenId: uint256) &lt;&lt;onlyAllowedToInteract, onlyWhenNotEmergencyMode&gt;&gt;</text>
<text text-anchor="start" x="431.84" y="-8.7" font-family="Times,serif" font-size="14.00"> &#160;&#160;&#160;safeTransferFrom(v: uint8, r: bytes32, s: bytes32, expiry: uint256, from: address, to: address, tokenId: uint256) &lt;&lt;requiresAuth, onlyWhenNotEmergencyMode&gt;&gt;</text>
</g>
<!-- 7 -->
<g id="node4" class="node">
<title>7</title>
<polygon fill="#f2f2f2" stroke="black" points="245.6,-460.3 245.6,-593.9 909.14,-593.9 909.14,-460.3 245.6,-460.3"/>
<text text-anchor="middle" x="577.37" y="-577.3" font-family="Times,serif" font-size="14.00">&lt;&lt;Abstract&gt;&gt;</text>
<text text-anchor="middle" x="577.37" y="-560.5" font-family="Times,serif" font-size="14.00">EATMulticallPeripheryPayments</text>
<text text-anchor="middle" x="577.37" y="-543.7" font-family="Times,serif" font-size="14.00">contracts/base/EATMulticallPeripheryPayments.sol</text>
<polyline fill="none" stroke="black" points="245.6,-535.5 909.14,-535.5 "/>
<text text-anchor="start" x="253.6" y="-518.9" font-family="Times,serif" font-size="14.00">Public:</text>
<text text-anchor="start" x="253.6" y="-502.1" font-family="Times,serif" font-size="14.00"> &#160;&#160;&#160;&lt;&lt;payable&gt;&gt; unwrapWETH9(amountMinimum: uint256, recipient: address) &lt;&lt;onlySelfMulticall&gt;&gt;</text>
<text text-anchor="start" x="253.6" y="-485.3" font-family="Times,serif" font-size="14.00"> &#160;&#160;&#160;&lt;&lt;payable&gt;&gt; sweepToken(token: address, amountMinimum: uint256, recipient: address) &lt;&lt;onlySelfMulticall&gt;&gt;</text>
<text text-anchor="start" x="253.6" y="-468.5" font-family="Times,serif" font-size="14.00"> &#160;&#160;&#160;&lt;&lt;payable&gt;&gt; refundETH() &lt;&lt;onlySelfMulticall&gt;&gt;</text>
</g>
<!-- 2&#45;&gt;7 -->
<g id="edge2" class="edge">
<title>2&#45;&gt;7</title>
<path fill="none" stroke="black" d="M844.57,-394.19C807.25,-412.61 771.06,-430.48 738,-446.8"/>
<polygon fill="none" stroke="black" points="733.25,-437.43 711,-460.13 742.55,-456.27 733.25,-437.43"/>
</g>
<!-- 9 -->
<g id="node5" class="node">
<title>9</title>
<polygon fill="#f2f2f2" stroke="black" points="927.33,-431.1 927.33,-623.1 1555.41,-623.1 1555.41,-431.1 927.33,-431.1"/>
<text text-anchor="middle" x="1241.37" y="-606.5" font-family="Times,serif" font-size="14.00">&lt;&lt;Abstract&gt;&gt;</text>
<text text-anchor="middle" x="1241.37" y="-589.7" font-family="Times,serif" font-size="14.00">ERC721Permit</text>
<text text-anchor="middle" x="1241.37" y="-572.9" font-family="Times,serif" font-size="14.00">contracts/base/ERC721Permit.sol</text>
<polyline fill="none" stroke="black" points="927.33,-564.7 1555.41,-564.7 "/>
<text text-anchor="start" x="935.33" y="-548.1" font-family="Times,serif" font-size="14.00">Public:</text>
<text text-anchor="start" x="935.33" y="-531.3" font-family="Times,serif" font-size="14.00"> &#160;&#160;PERMIT_TYPEHASH: bytes32</text>
<polyline fill="none" stroke="black" points="927.33,-523.1 1555.41,-523.1 "/>
<text text-anchor="start" x="935.33" y="-506.5" font-family="Times,serif" font-size="14.00">External:</text>
<text text-anchor="start" x="935.33" y="-489.7" font-family="Times,serif" font-size="14.00"> &#160;&#160;&#160;&lt;&lt;payable&gt;&gt; permit(spender: address, tokenId: uint256, deadline: uint256, v: uint8, r: bytes32, s: bytes32)</text>
<text text-anchor="start" x="935.33" y="-472.9" font-family="Times,serif" font-size="14.00">Public:</text>
<text text-anchor="start" x="935.33" y="-456.1" font-family="Times,serif" font-size="14.00"> &#160;&#160;&#160;constructor(name_: string, symbol_: string, version_: string)</text>
<text text-anchor="start" x="935.33" y="-439.3" font-family="Times,serif" font-size="14.00"> &#160;&#160;&#160;DOMAIN_SEPARATOR(): bytes32</text>
</g>
<!-- 2&#45;&gt;9 -->
<g id="edge1" class="edge">
<title>2&#45;&gt;9</title>
<path fill="none" stroke="black" d="M1241.37,-394.19C1241.37,-396.35 1241.37,-398.5 1241.37,-400.65"/>
<polygon fill="none" stroke="black" points="1230.87,-400.83 1241.37,-430.83 1251.87,-400.83 1230.87,-400.83"/>
</g>
<!-- 18 -->
<g id="node11" class="node">
<title>18</title>
<polygon fill="#f2f2f2" stroke="black" points="1573.68,-477.1 1573.68,-577.1 1877.06,-577.1 1877.06,-477.1 1573.68,-477.1"/>
<text text-anchor="middle" x="1725.37" y="-560.5" font-family="Times,serif" font-size="14.00">&lt;&lt;Abstract&gt;&gt;</text>
<text text-anchor="middle" x="1725.37" y="-543.7" font-family="Times,serif" font-size="14.00">PeripheryValidation</text>
<text text-anchor="middle" x="1725.37" y="-526.9" font-family="Times,serif" font-size="14.00">contracts/base/PeripheryValidation.sol</text>
<polyline fill="none" stroke="black" points="1573.68,-518.7 1877.06,-518.7 "/>
<text text-anchor="start" x="1581.68" y="-502.1" font-family="Times,serif" font-size="14.00">Public:</text>
<text text-anchor="start" x="1581.68" y="-485.3" font-family="Times,serif" font-size="14.00"> &#160;&#160;&#160;&lt;&lt;modifier&gt;&gt; checkDeadline(deadline: uint256)</text>
</g>
<!-- 2&#45;&gt;18 -->
<g id="edge3" class="edge">
<title>2&#45;&gt;18</title>
<path fill="none" stroke="black" d="M1530.6,-394.19C1565.4,-417.76 1598.85,-440.41 1627.9,-460.09"/>
<polygon fill="none" stroke="black" points="1622.02,-468.78 1652.75,-476.91 1633.8,-451.4 1622.02,-468.78"/>
</g>
<!-- 5 -->
<g id="node2" class="node">
<title>5</title>
<polygon fill="#f2f2f2" stroke="black" points="1467.64,-714.5 1467.64,-797.7 1683.1,-797.7 1683.1,-714.5 1467.64,-714.5"/>
<text text-anchor="middle" x="1575.37" y="-781.1" font-family="Times,serif" font-size="14.00">&lt;&lt;Abstract&gt;&gt;</text>
<text text-anchor="middle" x="1575.37" y="-764.3" font-family="Times,serif" font-size="14.00">BlockTimestamp</text>
<text text-anchor="middle" x="1575.37" y="-747.5" font-family="Times,serif" font-size="14.00">contracts/base/BlockTimestamp.sol</text>
<polyline fill="none" stroke="black" points="1467.64,-739.3 1683.1,-739.3 "/>
<text text-anchor="middle" x="1575.37" y="-722.7" font-family="Times,serif" font-size="14.00"> </text>
</g>
<!-- 6 -->
<g id="node3" class="node">
<title>6</title>
<polygon fill="#f2f2f2" stroke="black" points="0,-660.1 0,-852.1 788.74,-852.1 788.74,-660.1 0,-660.1"/>
<text text-anchor="middle" x="394.37" y="-835.5" font-family="Times,serif" font-size="14.00">&lt;&lt;Abstract&gt;&gt;</text>
<text text-anchor="middle" x="394.37" y="-818.7" font-family="Times,serif" font-size="14.00">EATMulticall</text>
<text text-anchor="middle" x="394.37" y="-801.9" font-family="Times,serif" font-size="14.00">contracts/base/EATMulticall.sol</text>
<polyline fill="none" stroke="black" points="0,-793.7 788.74,-793.7 "/>
<text text-anchor="middle" x="394.37" y="-777.1" font-family="Times,serif" font-size="14.00"> </text>
<polyline fill="none" stroke="black" points="0,-768.9 788.74,-768.9 "/>
<text text-anchor="start" x="8" y="-752.3" font-family="Times,serif" font-size="14.00">Public:</text>
<text text-anchor="start" x="8" y="-735.5" font-family="Times,serif" font-size="14.00"> &#160;&#160;&#160;&lt;&lt;payable&gt;&gt; multicall(v: uint8, r: bytes32, s: bytes32, expiry: uint256, data: bytes[]): (results: bytes[]) &lt;&lt;requiresAuth, multicalling&gt;&gt;</text>
<text text-anchor="start" x="8" y="-718.7" font-family="Times,serif" font-size="14.00"> &#160;&#160;&#160;&lt;&lt;payable&gt;&gt; multicall(bytes[]): bytes[]</text>
<text text-anchor="start" x="8" y="-701.9" font-family="Times,serif" font-size="14.00"> &#160;&#160;&#160;&lt;&lt;modifier&gt;&gt; multicalling()</text>
<text text-anchor="start" x="8" y="-685.1" font-family="Times,serif" font-size="14.00"> &#160;&#160;&#160;&lt;&lt;modifier&gt;&gt; onlySelfMulticall()</text>
<text text-anchor="start" x="8" y="-668.3" font-family="Times,serif" font-size="14.00"> &#160;&#160;&#160;constructor(_EATVerifier: address)</text>
</g>
<!-- 14 -->
<g id="node8" class="node">
<title>14</title>
<polygon fill="#f2f2f2" stroke="black" points="225.96,-943.5 225.96,-1043.5 562.78,-1043.5 562.78,-943.5 225.96,-943.5"/>
<text text-anchor="middle" x="394.37" y="-1026.9" font-family="Times,serif" font-size="14.00">&lt;&lt;Abstract&gt;&gt;</text>
<text text-anchor="middle" x="394.37" y="-1010.1" font-family="Times,serif" font-size="14.00">Multicall</text>
<text text-anchor="middle" x="394.37" y="-993.3" font-family="Times,serif" font-size="14.00">contracts/base/Multicall.sol</text>
<polyline fill="none" stroke="black" points="225.96,-985.1 562.78,-985.1 "/>
<text text-anchor="start" x="233.96" y="-968.5" font-family="Times,serif" font-size="14.00">Public:</text>
<text text-anchor="start" x="233.96" y="-951.7" font-family="Times,serif" font-size="14.00"> &#160;&#160;&#160;&lt;&lt;payable&gt;&gt; multicall(data: bytes[]): (results: bytes[])</text>
</g>
<!-- 6&#45;&gt;14 -->
<g id="edge4" class="edge">
<title>6&#45;&gt;14</title>
<path fill="none" stroke="black" d="M394.37,-852.17C394.37,-872.44 394.37,-893.64 394.37,-913.25"/>
<polygon fill="none" stroke="black" points="383.87,-913.32 394.37,-943.32 404.87,-913.32 383.87,-913.32"/>
</g>
<!-- 7&#45;&gt;6 -->
<g id="edge6" class="edge">
<title>7&#45;&gt;6</title>
<path fill="none" stroke="black" d="M524.19,-594.06C513.45,-607.39 501.85,-621.78 490.15,-636.29"/>
<polygon fill="none" stroke="black" points="481.82,-629.9 471.16,-659.84 498.17,-643.08 481.82,-629.9"/>
</g>
<!-- 10 -->
<g id="node6" class="node">
<title>10</title>
<polygon fill="#f2f2f2" stroke="black" points="806.83,-706.1 806.83,-806.1 1299.91,-806.1 1299.91,-706.1 806.83,-706.1"/>
<text text-anchor="middle" x="1053.37" y="-789.5" font-family="Times,serif" font-size="14.00">&lt;&lt;Abstract&gt;&gt;</text>
<text text-anchor="middle" x="1053.37" y="-772.7" font-family="Times,serif" font-size="14.00">LiquidityManagement</text>
<text text-anchor="middle" x="1053.37" y="-755.9" font-family="Times,serif" font-size="14.00">contracts/base/LiquidityManagement.sol</text>
<polyline fill="none" stroke="black" points="806.83,-747.7 1299.91,-747.7 "/>
<text text-anchor="start" x="814.83" y="-731.1" font-family="Times,serif" font-size="14.00">External:</text>
<text text-anchor="start" x="814.83" y="-714.3" font-family="Times,serif" font-size="14.00"> &#160;&#160;&#160;mauveMintCallback(amount0Owed: uint256, amount1Owed: uint256, data: bytes)</text>
</g>
<!-- 7&#45;&gt;10 -->
<g id="edge5" class="edge">
<title>7&#45;&gt;10</title>
<path fill="none" stroke="black" d="M715.37,-593.91C780.92,-625.17 858.85,-662.33 923.34,-693.09"/>
<polygon fill="none" stroke="black" points="918.95,-702.63 950.55,-706.07 927.99,-683.67 918.95,-702.63"/>
</g>
<!-- 9&#45;&gt;5 -->
<g id="edge7" class="edge">
<title>9&#45;&gt;5</title>
<path fill="none" stroke="black" d="M1381.56,-623.38C1418.47,-648.46 1457.17,-674.77 1490.2,-697.21"/>
<polygon fill="none" stroke="black" points="1484.61,-706.11 1515.33,-714.29 1496.42,-688.75 1484.61,-706.11"/>
</g>
<!-- 13 -->
<g id="node7" class="node">
<title>13</title>
<polygon fill="#f2f2f2" stroke="black" points="729.91,-889.1 729.91,-1097.9 1076.83,-1097.9 1076.83,-889.1 729.91,-889.1"/>
<text text-anchor="middle" x="903.37" y="-1081.3" font-family="Times,serif" font-size="14.00">&lt;&lt;Abstract&gt;&gt;</text>
<text text-anchor="middle" x="903.37" y="-1064.5" font-family="Times,serif" font-size="14.00">MauveCompliance</text>
<text text-anchor="middle" x="903.37" y="-1047.7" font-family="Times,serif" font-size="14.00">contracts/base/MauveCompliance.sol</text>
<polyline fill="none" stroke="black" points="729.91,-1039.5 1076.83,-1039.5 "/>
<text text-anchor="middle" x="903.37" y="-1022.9" font-family="Times,serif" font-size="14.00"> </text>
<polyline fill="none" stroke="black" points="729.91,-1014.7 1076.83,-1014.7 "/>
<text text-anchor="start" x="737.91" y="-998.1" font-family="Times,serif" font-size="14.00">External:</text>
<text text-anchor="start" x="737.91" y="-981.3" font-family="Times,serif" font-size="14.00"> &#160;&#160;&#160;activateEmergencyMode() &lt;&lt;onlyFactoryOwner&gt;&gt;</text>
<text text-anchor="start" x="737.91" y="-964.5" font-family="Times,serif" font-size="14.00">Public:</text>
<text text-anchor="start" x="737.91" y="-947.7" font-family="Times,serif" font-size="14.00"> &#160;&#160;&#160;&lt;&lt;modifier&gt;&gt; onlyFactoryOwner()</text>
<text text-anchor="start" x="737.91" y="-930.9" font-family="Times,serif" font-size="14.00"> &#160;&#160;&#160;&lt;&lt;modifier&gt;&gt; onlyWhenNotEmergencyMode()</text>
<text text-anchor="start" x="737.91" y="-914.1" font-family="Times,serif" font-size="14.00"> &#160;&#160;&#160;&lt;&lt;modifier&gt;&gt; onlyAllowedToInteract(account: address)</text>
<text text-anchor="start" x="737.91" y="-897.3" font-family="Times,serif" font-size="14.00"> &#160;&#160;&#160;constructor(_violetId: address)</text>
</g>
<!-- 10&#45;&gt;13 -->
<g id="edge8" class="edge">
<title>10&#45;&gt;13</title>
<path fill="none" stroke="black" d="M1022.11,-806.16C1011.3,-823.12 998.63,-843 985.67,-863.34"/>
<polygon fill="none" stroke="black" points="976.79,-857.74 969.52,-888.69 994.5,-869.03 976.79,-857.74"/>
</g>
<!-- 16 -->
<g id="node10" class="node">
<title>16</title>
<polygon fill="#f2f2f2" stroke="black" points="1094.53,-909.9 1094.53,-1077.1 1624.21,-1077.1 1624.21,-909.9 1094.53,-909.9"/>
<text text-anchor="middle" x="1359.37" y="-1060.5" font-family="Times,serif" font-size="14.00">&lt;&lt;Abstract&gt;&gt;</text>
<text text-anchor="middle" x="1359.37" y="-1043.7" font-family="Times,serif" font-size="14.00">PeripheryPayments</text>
<text text-anchor="middle" x="1359.37" y="-1026.9" font-family="Times,serif" font-size="14.00">contracts/base/PeripheryPayments.sol</text>
<polyline fill="none" stroke="black" points="1094.53,-1018.7 1624.21,-1018.7 "/>
<text text-anchor="start" x="1102.53" y="-1002.1" font-family="Times,serif" font-size="14.00">External:</text>
<text text-anchor="start" x="1102.53" y="-985.3" font-family="Times,serif" font-size="14.00"> &#160;&#160;&#160;&lt;&lt;payable&gt;&gt; null()</text>
<text text-anchor="start" x="1102.53" y="-968.5" font-family="Times,serif" font-size="14.00">Public:</text>
<text text-anchor="start" x="1102.53" y="-951.7" font-family="Times,serif" font-size="14.00"> &#160;&#160;&#160;&lt;&lt;payable&gt;&gt; unwrapWETH9(amountMinimum: uint256, recipient: address)</text>
<text text-anchor="start" x="1102.53" y="-934.9" font-family="Times,serif" font-size="14.00"> &#160;&#160;&#160;&lt;&lt;payable&gt;&gt; sweepToken(token: address, amountMinimum: uint256, recipient: address)</text>
<text text-anchor="start" x="1102.53" y="-918.1" font-family="Times,serif" font-size="14.00"> &#160;&#160;&#160;&lt;&lt;payable&gt;&gt; refundETH()</text>
</g>
<!-- 10&#45;&gt;16 -->
<g id="edge9" class="edge">
<title>10&#45;&gt;16</title>
<path fill="none" stroke="black" d="M1117.15,-806.16C1149.27,-830.87 1189.46,-861.79 1227.82,-891.3"/>
<polygon fill="none" stroke="black" points="1221.52,-899.7 1251.7,-909.67 1234.32,-883.05 1221.52,-899.7"/>
</g>
<!-- 15 -->
<g id="node9" class="node">
<title>15</title>
<polygon fill="#f2f2f2" stroke="black" points="976.81,-1134.9 976.81,-1293.3 1285.93,-1293.3 1285.93,-1134.9 976.81,-1134.9"/>
<text text-anchor="middle" x="1131.37" y="-1276.7" font-family="Times,serif" font-size="14.00">&lt;&lt;Abstract&gt;&gt;</text>
<text text-anchor="middle" x="1131.37" y="-1259.9" font-family="Times,serif" font-size="14.00">PeripheryImmutableState</text>
<text text-anchor="middle" x="1131.37" y="-1243.1" font-family="Times,serif" font-size="14.00">contracts/base/PeripheryImmutableState.sol</text>
<polyline fill="none" stroke="black" points="976.81,-1234.9 1285.93,-1234.9 "/>
<text text-anchor="start" x="984.81" y="-1218.3" font-family="Times,serif" font-size="14.00">Public:</text>
<text text-anchor="start" x="984.81" y="-1201.5" font-family="Times,serif" font-size="14.00"> &#160;&#160;factory: address</text>
<text text-anchor="start" x="984.81" y="-1184.7" font-family="Times,serif" font-size="14.00"> &#160;&#160;WETH9: address</text>
<polyline fill="none" stroke="black" points="976.81,-1176.5 1285.93,-1176.5 "/>
<text text-anchor="start" x="984.81" y="-1159.9" font-family="Times,serif" font-size="14.00">Public:</text>
<text text-anchor="start" x="984.81" y="-1143.1" font-family="Times,serif" font-size="14.00"> &#160;&#160;&#160;constructor(_factory: address, _WETH9: address)</text>
</g>
<!-- 13&#45;&gt;15 -->
<g id="edge10" class="edge">
<title>13&#45;&gt;15</title>
<path fill="none" stroke="black" d="M1011.36,-1098.04C1016.9,-1103.35 1022.46,-1108.68 1027.98,-1113.98"/>
<polygon fill="none" stroke="black" points="1020.76,-1121.6 1049.68,-1134.78 1035.29,-1106.44 1020.76,-1121.6"/>
</g>
<!-- 16&#45;&gt;15 -->
<g id="edge11" class="edge">
<title>16&#45;&gt;15</title>
<path fill="none" stroke="black" d="M1273.17,-1077.14C1260.72,-1089.08 1247.8,-1101.47 1235.06,-1113.69"/>
<polygon fill="none" stroke="black" points="1227.56,-1106.33 1213.17,-1134.67 1242.09,-1121.49 1227.56,-1106.33"/>
</g>
<!-- 18&#45;&gt;5 -->
<g id="edge12" class="edge">
<title>18&#45;&gt;5</title>
<path fill="none" stroke="black" d="M1692.82,-577.36C1671.21,-610.06 1642.58,-653.38 1619,-689.07"/>
<polygon fill="none" stroke="black" points="1610.12,-683.47 1602.34,-714.28 1627.64,-695.04 1610.12,-683.47"/>
</g>
</g>
</svg>
